solid inlet
facet normal 0.000000 1.000000 0.000000
outer loop
vertex -283.270447 -54.196777 525.907837
vertex -283.270447 -54.196777 1130.294922
vertex -267.141632 -54.196777 1130.294922
endloop
endfacet
facet normal -0.000001 1.000000 0.000000
outer loop
vertex -283.270447 -54.196777 525.907837
vertex -267.141632 -54.196777 1130.294922
vertex -267.141632 -54.196766 524.258179
endloop
endfacet
facet normal 0.000000 1.000000 0.000000
outer loop
vertex -267.141632 -54.196766 524.258179
vertex -267.141632 -54.196777 1130.294922
vertex -251.012726 -54.196777 1130.294922
endloop
endfacet
facet normal 0.000002 1.000000 -0.000000
outer loop
vertex -267.141632 -54.196766 524.258179
vertex -251.012726 -54.196777 1130.294922
vertex -251.012726 -54.196793 519.843872
endloop
endfacet
facet normal 0.000000 1.000000 -0.000000
outer loop
vertex -251.012726 -54.196793 519.843872
vertex -251.012726 -54.196777 1130.294922
vertex -234.883820 -54.196777 1130.294922
endloop
endfacet
facet normal -0.000002 1.000000 0.000000
outer loop
vertex -251.012726 -54.196793 519.843872
vertex -234.883820 -54.196777 1130.294922
vertex -234.883820 -54.196762 511.531616
endloop
endfacet
facet normal 0.000000 1.000000 0.000000
outer loop
vertex -234.883820 -54.196762 511.531616
vertex -234.883820 -54.196777 1130.294922
vertex -218.754913 -54.196777 1130.294922
endloop
endfacet
facet normal -0.000000 1.000000 0.000000
outer loop
vertex -234.883820 -54.196762 511.531616
vertex -218.754913 -54.196777 1130.294922
vertex -218.754913 -54.196758 504.887665
endloop
endfacet
facet normal 0.000000 1.000000 0.000000
outer loop
vertex -218.754913 -54.196758 504.887665
vertex -218.754913 -54.196777 1130.294922
vertex -202.625961 -54.196777 1130.294922
endloop
endfacet
facet normal 0.000001 1.000000 0.000000
outer loop
vertex -218.754913 -54.196758 504.887665
vertex -202.625961 -54.196777 1130.294922
vertex -202.625961 -54.196770 492.611298
endloop
endfacet
facet normal 0.000000 1.000000 0.000000
outer loop
vertex -202.625961 -54.196770 492.611298
vertex -202.625961 -54.196777 1130.294922
vertex -186.497086 -54.196777 1130.294922
endloop
endfacet
facet normal -0.000001 1.000000 0.000000
outer loop
vertex -202.625961 -54.196770 492.611298
vertex -186.497086 -54.196777 1130.294922
vertex -186.497086 -54.196758 483.380737
endloop
endfacet
facet normal 0.000000 1.000000 0.000000
outer loop
vertex -186.497086 -54.196758 483.380737
vertex -186.497086 -54.196777 1130.294922
vertex -170.368103 -54.196777 1130.294922
endloop
endfacet
facet normal 0.000001 1.000000 0.000000
outer loop
vertex -186.497086 -54.196758 483.380737
vertex -170.368103 -54.196777 1130.294922
vertex -170.368103 -54.196774 477.057312
endloop
endfacet
facet normal 0.000000 1.000000 0.000000
outer loop
vertex -170.368103 -54.196774 477.057312
vertex -170.368103 -54.196777 1130.294922
vertex -154.239258 -54.196777 1130.294922
endloop
endfacet
facet normal -0.000000 1.000000 0.000000
outer loop
vertex -170.368103 -54.196774 477.057312
vertex -154.239258 -54.196777 1130.294922
vertex -154.239258 -54.196766 474.436462
endloop
endfacet
facet normal 0.000000 1.000000 0.000000
outer loop
vertex -154.239258 -54.196766 474.436462
vertex -154.239258 -54.196777 1130.294922
vertex -138.110352 -54.196777 1130.294922
endloop
endfacet
facet normal 0.000001 1.000000 -0.000000
outer loop
vertex -154.239258 -54.196766 474.436462
vertex -138.110352 -54.196777 1130.294922
vertex -138.110352 -54.196789 461.098145
endloop
endfacet
facet normal 0.000000 1.000000 -0.000000
outer loop
vertex -138.110352 -54.196789 461.098145
vertex -138.110352 -54.196777 1130.294922
vertex -121.981445 -54.196777 1130.294922
endloop
endfacet
facet normal -0.000002 1.000000 0.000000
outer loop
vertex -138.110352 -54.196789 461.098145
vertex -121.981445 -54.196777 1130.294922
vertex -121.981445 -54.196758 460.717468
endloop
endfacet
facet normal 0.000000 1.000000 0.000000
outer loop
vertex -121.981445 -54.196758 460.717468
vertex -121.981445 -54.196777 1130.294922
vertex -105.852539 -54.196777 1130.294922
endloop
endfacet
facet normal 0.000002 1.000000 0.000000
outer loop
vertex -121.981445 -54.196758 460.717468
vertex -105.852539 -54.196777 1130.294922
vertex -105.852539 -54.196785 460.173431
endloop
endfacet
facet normal 0.000000 1.000000 -0.000000
outer loop
vertex -105.852539 -54.196785 460.173431
vertex -105.852539 -54.196777 1130.294922
vertex -89.723587 -54.196777 1130.294922
endloop
endfacet
facet normal -0.000001 1.000000 0.000000
outer loop
vertex -105.852539 -54.196785 460.173431
vertex -89.723587 -54.196777 1130.294922
vertex -89.723587 -54.196774 459.885071
endloop
endfacet
facet normal 0.000000 1.000000 0.000000
outer loop
vertex -89.723587 -54.196774 459.885071
vertex -89.723587 -54.196777 1130.294922
vertex -73.594757 -54.196777 1130.294922
endloop
endfacet
facet normal 0.000000 1.000000 0.000000
outer loop
vertex -89.723587 -54.196774 459.885071
vertex -73.594757 -54.196777 1130.294922
vertex -73.594757 -54.196774 459.417816
endloop
endfacet
facet normal 0.000000 1.000000 0.000000
outer loop
vertex -73.594757 -54.196774 459.417816
vertex -73.594757 -54.196777 1130.294922
vertex -57.465816 -54.196777 1130.294922
endloop
endfacet
facet normal -0.000000 1.000000 0.000000
outer loop
vertex -73.594757 -54.196774 459.417816
vertex -57.465816 -54.196777 1130.294922
vertex -57.465820 -54.196770 458.883728
endloop
endfacet
facet normal 0.000000 1.000000 0.000000
outer loop
vertex -57.465820 -54.196770 458.883728
vertex -57.465816 -54.196777 1130.294922
vertex -41.336895 -54.196777 1130.294922
endloop
endfacet
facet normal -0.000000 1.000000 0.000000
outer loop
vertex -57.465820 -54.196770 458.883728
vertex -41.336895 -54.196777 1130.294922
vertex -41.336899 -54.196770 460.899963
endloop
endfacet
facet normal 0.000000 1.000000 0.000000
outer loop
vertex -41.336899 -54.196770 460.899963
vertex -41.336895 -54.196777 1130.294922
vertex -25.208004 -54.196777 1130.294922
endloop
endfacet
facet normal 0.000000 1.000000 0.000000
outer loop
vertex -41.336899 -54.196770 460.899963
vertex -25.208004 -54.196777 1130.294922
vertex -25.208008 -54.196774 456.527222
endloop
endfacet
facet normal 0.000000 1.000000 0.000000
outer loop
vertex -25.208008 -54.196774 456.527222
vertex -25.208004 -54.196777 1130.294922
vertex -9.079117 -54.196777 1130.294922
endloop
endfacet
facet normal -0.000000 1.000000 0.000000
outer loop
vertex -25.208008 -54.196774 456.527222
vertex -9.079117 -54.196777 1130.294922
vertex -9.079117 -54.196770 459.499451
endloop
endfacet
facet normal 0.000000 1.000000 0.000000
outer loop
vertex -9.079117 -54.196770 459.499451
vertex -9.079117 -54.196777 1130.294922
vertex 7.049805 -54.196777 1130.294922
endloop
endfacet
facet normal -0.000000 1.000000 0.000000
outer loop
vertex -9.079117 -54.196770 459.499451
vertex 7.049805 -54.196777 1130.294922
vertex 7.049805 -54.196770 460.010559
endloop
endfacet
facet normal 0.000000 1.000000 0.000000
outer loop
vertex 7.049805 -54.196770 460.010559
vertex 7.049805 -54.196777 1130.294922
vertex 23.178711 -54.196777 1130.294922
endloop
endfacet
facet normal -0.000000 1.000000 0.000000
outer loop
vertex 7.049805 -54.196770 460.010559
vertex 23.178711 -54.196777 1130.294922
vertex 23.178711 -54.196766 460.366150
endloop
endfacet
facet normal 0.000000 1.000000 0.000000
outer loop
vertex 23.178711 -54.196766 460.366150
vertex 23.178711 -54.196777 1130.294922
vertex 39.307632 -54.196777 1130.294922
endloop
endfacet
facet normal -0.000000 1.000000 0.000000
outer loop
vertex 23.178711 -54.196766 460.366150
vertex 39.307632 -54.196777 1130.294922
vertex 39.307632 -54.196762 460.856628
endloop
endfacet
facet normal 0.000000 1.000000 0.000000
outer loop
vertex 39.307632 -54.196762 460.856628
vertex 39.307632 -54.196777 1130.294922
vertex 55.436478 -54.196777 1130.294922
endloop
endfacet
facet normal 0.000000 1.000000 0.000000
outer loop
vertex 39.307632 -54.196762 460.856628
vertex 55.436478 -54.196777 1130.294922
vertex 55.436478 -54.196770 461.454895
endloop
endfacet
facet normal 0.000000 1.000000 0.000000
outer loop
vertex 55.436478 -54.196770 461.454895
vertex 55.436478 -54.196777 1130.294922
vertex 71.565414 -54.196777 1130.294922
endloop
endfacet
facet normal -0.000001 1.000000 0.000000
outer loop
vertex 55.436478 -54.196770 461.454895
vertex 71.565414 -54.196777 1130.294922
vertex 71.565414 -54.196758 461.806244
endloop
endfacet
facet normal 0.000000 1.000000 0.000000
outer loop
vertex 71.565414 -54.196758 461.806244
vertex 71.565414 -54.196777 1130.294922
vertex 87.694351 -54.196777 1130.294922
endloop
endfacet
facet normal 0.000001 1.000000 0.000000
outer loop
vertex 71.565414 -54.196758 461.806244
vertex 87.694351 -54.196777 1130.294922
vertex 87.694351 -54.196770 461.990326
endloop
endfacet
facet normal 0.000000 1.000000 0.000000
outer loop
vertex 87.694351 -54.196770 461.990326
vertex 87.694351 -54.196777 1130.294922
vertex 103.823257 -54.196777 1130.294922
endloop
endfacet
facet normal 0.000000 1.000000 0.000000
outer loop
vertex 87.694351 -54.196770 461.990326
vertex 103.823257 -54.196777 1130.294922
vertex 103.823257 -54.196770 461.909851
endloop
endfacet
facet normal 0.000000 1.000000 0.000000
outer loop
vertex 103.823257 -54.196770 461.909851
vertex 103.823257 -54.196777 1130.294922
vertex 119.952118 -54.196777 1130.294922
endloop
endfacet
facet normal 0.000001 1.000000 -0.000000
outer loop
vertex 103.823257 -54.196770 461.909851
vertex 119.952118 -54.196777 1130.294922
vertex 119.952118 -54.196789 461.376343
endloop
endfacet
facet normal 0.000000 1.000000 -0.000000
outer loop
vertex 119.952118 -54.196789 461.376343
vertex 119.952118 -54.196777 1130.294922
vertex 136.081024 -54.196777 1130.294922
endloop
endfacet
facet normal -0.000000 1.000000 0.000000
outer loop
vertex 119.952118 -54.196789 461.376343
vertex 136.081024 -54.196777 1130.294922
vertex 136.081024 -54.196785 460.543182
endloop
endfacet
facet normal 0.000000 1.000000 -0.000000
outer loop
vertex 136.081024 -54.196785 460.543182
vertex 136.081024 -54.196777 1130.294922
vertex 152.209991 -54.196777 1130.294922
endloop
endfacet
facet normal -0.000000 1.000000 0.000000
outer loop
vertex 136.081024 -54.196785 460.543182
vertex 152.209991 -54.196777 1130.294922
vertex 152.209991 -54.196777 462.731934
endloop
endfacet
facet normal 0.000000 1.000000 0.000000
outer loop
vertex 152.209991 -54.196777 462.731934
vertex 152.209991 -54.196777 1130.294922
vertex 168.338852 -54.196777 1130.294922
endloop
endfacet
facet normal -0.000000 1.000000 0.000000
outer loop
vertex 152.209991 -54.196777 462.731934
vertex 168.338852 -54.196777 1130.294922
vertex 168.338852 -54.196774 463.888855
endloop
endfacet
facet normal 0.000000 1.000000 0.000000
outer loop
vertex 168.338852 -54.196774 463.888855
vertex 168.338852 -54.196777 1130.294922
vertex 184.467804 -54.196777 1130.294922
endloop
endfacet
facet normal 0.000000 1.000000 0.000000
outer loop
vertex 168.338852 -54.196774 463.888855
vertex 184.467804 -54.196777 1130.294922
vertex 184.467804 -54.196777 463.926941
endloop
endfacet
facet normal 0.000000 1.000000 0.000000
outer loop
vertex 184.467804 -54.196777 463.926941
vertex 184.467804 -54.196777 1130.294922
vertex 200.596695 -54.196777 1130.294922
endloop
endfacet
facet normal -0.000001 1.000000 0.000000
outer loop
vertex 184.467804 -54.196777 463.926941
vertex 200.596695 -54.196777 1130.294922
vertex 200.596695 -54.196762 464.610565
endloop
endfacet
facet normal 0.000000 1.000000 0.000000
outer loop
vertex 200.596695 -54.196762 464.610565
vertex 200.596695 -54.196777 1130.294922
vertex 216.725601 -54.196777 1130.294922
endloop
endfacet
facet normal -0.000000 1.000000 0.000000
outer loop
vertex 200.596695 -54.196762 464.610565
vertex 216.725601 -54.196777 1130.294922
vertex 216.725601 -54.196758 476.168182
endloop
endfacet
facet normal 0.000000 1.000000 0.000000
outer loop
vertex 216.725601 -54.196758 476.168182
vertex 216.725601 -54.196777 1130.294922
vertex 232.854492 -54.196777 1130.294922
endloop
endfacet
facet normal 0.000003 1.000000 -0.000000
outer loop
vertex 216.725601 -54.196758 476.168182
vertex 232.854492 -54.196777 1130.294922
vertex 232.854492 -54.196800 485.443726
endloop
endfacet
facet normal -0.000004 1.000000 -0.000000
outer loop
vertex 232.854492 -54.196800 485.443726
vertex 232.854492 -54.196777 1130.294922
vertex 248.983383 -54.196716 1130.294922
endloop
endfacet
facet normal -0.000003 1.000000 -0.000000
outer loop
vertex 232.854492 -54.196800 485.443726
vertex 248.983383 -54.196716 1130.294922
vertex 248.983383 -54.196747 502.695679
endloop
endfacet
facet normal 0.000004 1.000000 -0.000000
outer loop
vertex 248.983383 -54.196747 502.695679
vertex 248.983383 -54.196716 1130.294922
vertex 265.112305 -54.196777 1130.294922
endloop
endfacet
facet normal 0.000002 1.000000 0.000000
outer loop
vertex 248.983383 -54.196747 502.695679
vertex 265.112305 -54.196777 1130.294922
vertex 265.112305 -54.196777 517.026123
endloop
endfacet
facet normal 0.000000 1.000000 0.000000
outer loop
vertex 265.112305 -54.196777 517.026123
vertex 265.112305 -54.196777 1130.294922
vertex 281.241272 -54.196777 1130.294922
endloop
endfacet
facet normal 0.000000 1.000000 0.000000
outer loop
vertex 265.112305 -54.196777 517.026123
vertex 281.241272 -54.196777 1130.294922
vertex 281.241272 -54.196777 529.575867
endloop
endfacet
facet normal 0.000000 1.000000 0.000000
outer loop
vertex 281.241272 -54.196777 529.575867
vertex 281.241272 -54.196777 1130.294922
vertex 297.370117 -54.196777 1130.294922
endloop
endfacet
facet normal -0.000001 1.000000 0.000000
outer loop
vertex 281.241272 -54.196777 529.575867
vertex 297.370117 -54.196777 1130.294922
vertex 297.370117 -54.196762 543.808228
endloop
endfacet
facet normal 0.000000 1.000000 0.000000
outer loop
vertex 297.370117 -54.196762 543.808228
vertex 297.370117 -54.196777 1130.294922
vertex 313.499023 -54.196777 1130.294922
endloop
endfacet
facet normal 0.000000 1.000000 0.000000
outer loop
vertex 297.370117 -54.196762 543.808228
vertex 313.499023 -54.196777 1130.294922
vertex 313.499023 -54.196770 560.195557
endloop
endfacet
facet normal 0.000000 1.000000 0.000000
outer loop
vertex 313.499023 -54.196770 560.195557
vertex 313.499023 -54.196777 1130.294922
vertex 329.627899 -54.196777 1130.294922
endloop
endfacet
facet normal 0.000001 1.000000 -0.000000
outer loop
vertex 313.499023 -54.196770 560.195557
vertex 329.627899 -54.196777 1130.294922
vertex 329.627899 -54.196793 571.962341
endloop
endfacet
facet normal 0.000000 1.000000 -0.000000
outer loop
vertex 329.627899 -54.196793 571.962341
vertex 329.627899 -54.196777 1130.294922
vertex 345.756866 -54.196777 1130.294922
endloop
endfacet
facet normal -0.000001 1.000000 0.000000
outer loop
vertex 329.627899 -54.196793 571.962341
vertex 345.756866 -54.196777 1130.294922
vertex 345.756866 -54.196770 583.968933
endloop
endfacet
facet normal 0.000000 1.000000 0.000000
outer loop
vertex 345.756866 -54.196770 583.968933
vertex 345.756866 -54.196777 1130.294922
vertex 361.885742 -54.196777 1130.294922
endloop
endfacet
facet normal -0.000000 1.000000 0.000000
outer loop
vertex 345.756866 -54.196770 583.968933
vertex 361.885742 -54.196777 1130.294922
vertex 361.885742 -54.196762 596.692017
endloop
endfacet
facet normal 0.000000 1.000000 0.000000
outer loop
vertex 361.885742 -54.196762 596.692017
vertex 361.885742 -54.196777 1130.294922
vertex 378.014648 -54.196777 1130.294922
endloop
endfacet
facet normal 0.000002 1.000000 -0.000000
outer loop
vertex 361.885742 -54.196762 596.692017
vertex 378.014648 -54.196777 1130.294922
vertex 378.014648 -54.196793 610.251465
endloop
endfacet
facet normal -0.000004 1.000000 -0.000000
outer loop
vertex 378.014648 -54.196793 610.251465
vertex 378.014648 -54.196777 1130.294922
vertex 394.143585 -54.196716 1130.294922
endloop
endfacet
facet normal -0.000003 1.000000 -0.000000
outer loop
vertex 378.014648 -54.196793 610.251465
vertex 394.143585 -54.196716 1130.294922
vertex 394.143585 -54.196739 621.812683
endloop
endfacet
facet normal 0.000004 1.000000 -0.000000
outer loop
vertex 394.143585 -54.196739 621.812683
vertex 394.143585 -54.196716 1130.294922
vertex 410.272461 -54.196777 1130.294922
endloop
endfacet
facet normal 0.000002 1.000000 0.000000
outer loop
vertex 394.143585 -54.196739 621.812683
vertex 410.272461 -54.196777 1130.294922
vertex 410.272461 -54.196770 629.666748
endloop
endfacet
facet normal 0.000000 1.000000 0.000000
outer loop
vertex 410.272461 -54.196770 629.666748
vertex 410.272461 -54.196777 1130.294922
vertex 426.401367 -54.196777 1130.294922
endloop
endfacet
facet normal -0.000000 1.000000 0.000000
outer loop
vertex 410.272461 -54.196770 629.666748
vertex 426.401367 -54.196777 1130.294922
vertex 426.401367 -54.196770 638.559814
endloop
endfacet
facet normal -0.000004 1.000000 0.000000
outer loop
vertex 426.401367 -54.196770 638.559814
vertex 426.401367 -54.196777 1130.294922
vertex 442.530304 -54.196716 1130.294922
endloop
endfacet
facet normal -0.000002 1.000000 -0.000000
outer loop
vertex 426.401367 -54.196770 638.559814
vertex 442.530304 -54.196716 1130.294922
vertex 442.530304 -54.196739 651.812988
endloop
endfacet
facet normal 0.000004 1.000000 -0.000000
outer loop
vertex 442.530304 -54.196739 651.812988
vertex 442.530304 -54.196716 1130.294922
vertex 458.659241 -54.196777 1130.294922
endloop
endfacet
facet normal 0.000002 1.000000 0.000000
outer loop
vertex 442.530304 -54.196739 651.812988
vertex 458.659241 -54.196777 1130.294922
vertex 458.659241 -54.196766 666.492126
endloop
endfacet
facet normal 0.000000 1.000000 0.000000
outer loop
vertex 458.659241 -54.196766 666.492126
vertex 458.659241 -54.196777 1130.294922
vertex 474.788116 -54.196777 1130.294922
endloop
endfacet
facet normal 0.000000 1.000000 0.000000
outer loop
vertex 458.659241 -54.196766 666.492126
vertex 474.788116 -54.196777 1130.294922
vertex 474.788116 -54.196770 684.877441
endloop
endfacet
facet normal 0.000000 1.000000 0.000000
outer loop
vertex -380.043976 -54.196762 589.190796
vertex -380.043976 -54.196777 1130.294922
vertex -363.915100 -54.196777 1130.294922
endloop
endfacet
facet normal 0.000001 1.000000 0.000000
outer loop
vertex -380.043976 -54.196762 589.190796
vertex -363.915100 -54.196777 1130.294922
vertex -363.915100 -54.196774 576.815430
endloop
endfacet
facet normal 0.000000 1.000000 0.000000
outer loop
vertex -363.915100 -54.196774 576.815430
vertex -363.915100 -54.196777 1130.294922
vertex -347.786194 -54.196777 1130.294922
endloop
endfacet
facet normal 0.000001 1.000000 0.000000
outer loop
vertex -363.915100 -54.196774 576.815430
vertex -347.786194 -54.196777 1130.294922
vertex -347.786194 -54.196785 566.915955
endloop
endfacet
facet normal 0.000000 1.000000 -0.000000
outer loop
vertex -347.786194 -54.196785 566.915955
vertex -347.786194 -54.196777 1130.294922
vertex -331.657288 -54.196777 1130.294922
endloop
endfacet
facet normal -0.000001 1.000000 0.000000
outer loop
vertex -347.786194 -54.196785 566.915955
vertex -331.657288 -54.196777 1130.294922
vertex -331.657288 -54.196762 553.180176
endloop
endfacet
facet normal 0.000000 1.000000 0.000000
outer loop
vertex -331.657288 -54.196762 553.180176
vertex -331.657288 -54.196777 1130.294922
vertex -315.528320 -54.196777 1130.294922
endloop
endfacet
facet normal 0.000001 1.000000 0.000000
outer loop
vertex -331.657288 -54.196762 553.180176
vertex -315.528320 -54.196777 1130.294922
vertex -315.528320 -54.196777 537.584839
endloop
endfacet
facet normal 0.000000 1.000000 0.000000
outer loop
vertex -315.528320 -54.196777 537.584839
vertex -315.528320 -54.196777 1130.294922
vertex -299.399475 -54.196777 1130.294922
endloop
endfacet
facet normal -0.000000 1.000000 0.000000
outer loop
vertex -315.528320 -54.196777 537.584839
vertex -299.399475 -54.196777 1130.294922
vertex -299.399475 -54.196770 530.657593
endloop
endfacet
facet normal 0.000000 1.000000 0.000000
outer loop
vertex -299.399475 -54.196770 530.657593
vertex -299.399475 -54.196777 1130.294922
vertex -283.270447 -54.196777 1130.294922
endloop
endfacet
facet normal 0.000000 1.000000 0.000000
outer loop
vertex -299.399475 -54.196770 530.657593
vertex -283.270447 -54.196777 1130.294922
vertex -283.270447 -54.196777 525.907837
endloop
endfacet
endsolid inlet
