solid outlet
facet normal -0.000015 -1.000000 0.000000
outer loop
vertex -363.915070 -1553.587646 511.880859
vertex -363.915070 -1553.587646 1130.294922
vertex -380.043945 -1553.587402 1130.294922
endloop
endfacet
facet normal -0.000015 -1.000000 0.000000
outer loop
vertex -363.915070 -1553.587646 511.880859
vertex -380.043945 -1553.587402 1130.294922
vertex -380.043945 -1553.587402 512.385864
endloop
endfacet
facet normal 0.000008 -1.000000 0.000000
outer loop
vertex -347.786194 -1553.587524 498.601746
vertex -347.786194 -1553.587524 1130.294922
vertex -363.915070 -1553.587646 1130.294922
endloop
endfacet
facet normal 0.000008 -1.000000 0.000000
outer loop
vertex -347.786194 -1553.587524 498.601746
vertex -363.915070 -1553.587646 1130.294922
vertex -363.915070 -1553.587646 511.880859
endloop
endfacet
facet normal 0.000015 -1.000000 0.000000
outer loop
vertex -331.657227 -1553.587280 501.562347
vertex -331.657227 -1553.587280 1130.294922
vertex -347.786194 -1553.587524 1130.294922
endloop
endfacet
facet normal 0.000015 -1.000000 0.000000
outer loop
vertex -331.657227 -1553.587280 501.562347
vertex -347.786194 -1553.587524 1130.294922
vertex -347.786194 -1553.587524 498.601746
endloop
endfacet
facet normal 0.000000 -1.000000 0.000000
outer loop
vertex -315.528351 -1553.587280 503.111664
vertex -315.528351 -1553.587280 1130.294922
vertex -331.657227 -1553.587280 1130.294922
endloop
endfacet
facet normal 0.000000 -1.000000 0.000000
outer loop
vertex -315.528351 -1553.587280 503.111664
vertex -331.657227 -1553.587280 1130.294922
vertex -331.657227 -1553.587280 501.562347
endloop
endfacet
facet normal -0.000023 -1.000000 0.000000
outer loop
vertex -299.399475 -1553.587646 488.986328
vertex -299.399475 -1553.587646 1130.294922
vertex -315.528351 -1553.587280 1130.294922
endloop
endfacet
facet normal -0.000023 -1.000000 0.000000
outer loop
vertex -299.399475 -1553.587646 488.986328
vertex -315.528351 -1553.587280 1130.294922
vertex -315.528351 -1553.587280 503.111664
endloop
endfacet
facet normal 0.000000 -1.000000 0.000000
outer loop
vertex -283.270569 -1553.587646 473.620697
vertex -283.270569 -1553.587646 1130.294922
vertex -299.399475 -1553.587646 1130.294922
endloop
endfacet
facet normal 0.000000 -1.000000 0.000000
outer loop
vertex -283.270569 -1553.587646 473.620697
vertex -299.399475 -1553.587646 1130.294922
vertex -299.399475 -1553.587646 488.986328
endloop
endfacet
facet normal -0.000008 -1.000000 0.000000
outer loop
vertex -267.141632 -1553.587769 466.879456
vertex -267.141632 -1553.587769 1130.294922
vertex -283.270569 -1553.587646 1130.294922
endloop
endfacet
facet normal -0.000008 -1.000000 0.000000
outer loop
vertex -267.141632 -1553.587769 466.879456
vertex -283.270569 -1553.587646 1130.294922
vertex -283.270569 -1553.587646 473.620697
endloop
endfacet
facet normal 0.000015 -1.000000 0.000000
outer loop
vertex -251.012695 -1553.587524 458.757019
vertex -251.012695 -1553.587524 1130.294922
vertex -267.141632 -1553.587769 1130.294922
endloop
endfacet
facet normal 0.000015 -1.000000 0.000000
outer loop
vertex -251.012695 -1553.587524 458.757019
vertex -267.141632 -1553.587769 1130.294922
vertex -267.141632 -1553.587769 466.879456
endloop
endfacet
facet normal 0.000000 -1.000000 0.000000
outer loop
vertex -234.883850 -1553.587524 456.323334
vertex -234.883850 -1553.587524 1130.294922
vertex -251.012695 -1553.587524 1130.294922
endloop
endfacet
facet normal 0.000000 -1.000000 0.000000
outer loop
vertex -234.883850 -1553.587524 456.323334
vertex -251.012695 -1553.587524 1130.294922
vertex -251.012695 -1553.587524 458.757019
endloop
endfacet
facet normal 0.000000 -1.000000 0.000000
outer loop
vertex -218.754898 -1553.587524 453.104218
vertex -218.754913 -1553.587524 1130.294922
vertex -234.883850 -1553.587524 1130.294922
endloop
endfacet
facet normal 0.000000 -1.000000 0.000000
outer loop
vertex -218.754898 -1553.587524 453.104218
vertex -234.883850 -1553.587524 1130.294922
vertex -234.883850 -1553.587524 456.323334
endloop
endfacet
facet normal -0.000008 -1.000000 0.000000
outer loop
vertex -202.625977 -1553.587646 457.211884
vertex -202.625977 -1553.587646 1130.294922
vertex -218.754913 -1553.587524 1130.294922
endloop
endfacet
facet normal -0.000008 -1.000000 0.000000
outer loop
vertex -202.625977 -1553.587646 457.211884
vertex -218.754913 -1553.587524 1130.294922
vertex -218.754898 -1553.587524 453.104218
endloop
endfacet
facet normal 0.000008 -1.000000 0.000000
outer loop
vertex -186.497086 -1553.587524 457.393738
vertex -186.497086 -1553.587524 1130.294922
vertex -202.625977 -1553.587646 1130.294922
endloop
endfacet
facet normal 0.000008 -1.000000 0.000000
outer loop
vertex -186.497086 -1553.587524 457.393738
vertex -202.625977 -1553.587646 1130.294922
vertex -202.625977 -1553.587646 457.211884
endloop
endfacet
facet normal 0.000000 -1.000000 0.000000
outer loop
vertex -170.368134 -1553.587524 458.221985
vertex -170.368134 -1553.587524 1130.294922
vertex -186.497086 -1553.587524 1130.294922
endloop
endfacet
facet normal 0.000000 -1.000000 0.000000
outer loop
vertex -170.368134 -1553.587524 458.221985
vertex -186.497086 -1553.587524 1130.294922
vertex -186.497086 -1553.587524 457.393738
endloop
endfacet
facet normal 0.000000 -1.000000 0.000000
outer loop
vertex -154.239288 -1553.587524 458.492523
vertex -154.239288 -1553.587524 1130.294922
vertex -170.368134 -1553.587524 1130.294922
endloop
endfacet
facet normal 0.000000 -1.000000 0.000000
outer loop
vertex -154.239288 -1553.587524 458.492523
vertex -170.368134 -1553.587524 1130.294922
vertex -170.368134 -1553.587524 458.221985
endloop
endfacet
facet normal 0.000008 -1.000000 0.000000
outer loop
vertex -138.110291 -1553.587402 458.691498
vertex -138.110291 -1553.587402 1130.294922
vertex -154.239288 -1553.587524 1130.294922
endloop
endfacet
facet normal 0.000008 -1.000000 0.000000
outer loop
vertex -138.110291 -1553.587402 458.691498
vertex -154.239288 -1553.587524 1130.294922
vertex -154.239288 -1553.587524 458.492523
endloop
endfacet
facet normal 0.000000 -1.000000 0.000000
outer loop
vertex -121.981415 -1553.587402 458.895477
vertex -121.981415 -1553.587402 1130.294922
vertex -138.110291 -1553.587402 1130.294922
endloop
endfacet
facet normal 0.000000 -1.000000 0.000000
outer loop
vertex -121.981415 -1553.587402 458.895477
vertex -138.110291 -1553.587402 1130.294922
vertex -138.110291 -1553.587402 458.691498
endloop
endfacet
facet normal 0.000000 -1.000000 0.000000
outer loop
vertex -105.852547 -1553.587402 458.819916
vertex -105.852554 -1553.587402 1130.294922
vertex -121.981415 -1553.587402 1130.294922
endloop
endfacet
facet normal 0.000000 -1.000000 0.000000
outer loop
vertex -105.852547 -1553.587402 458.819916
vertex -121.981415 -1553.587402 1130.294922
vertex -121.981415 -1553.587402 458.895477
endloop
endfacet
facet normal -0.000008 -1.000000 0.000000
outer loop
vertex -89.723618 -1553.587524 458.908569
vertex -89.723618 -1553.587524 1130.294922
vertex -105.852554 -1553.587402 1130.294922
endloop
endfacet
facet normal -0.000008 -1.000000 0.000000
outer loop
vertex -89.723618 -1553.587524 458.908569
vertex -105.852554 -1553.587402 1130.294922
vertex -105.852547 -1553.587402 458.819916
endloop
endfacet
facet normal -0.000008 -1.000000 0.000000
outer loop
vertex -73.594742 -1553.587646 459.049438
vertex -73.594742 -1553.587646 1130.294922
vertex -89.723618 -1553.587524 1130.294922
endloop
endfacet
facet normal -0.000008 -1.000000 0.000000
outer loop
vertex -73.594742 -1553.587646 459.049438
vertex -89.723618 -1553.587524 1130.294922
vertex -89.723618 -1553.587524 458.908569
endloop
endfacet
facet normal 0.000015 -1.000000 0.000000
outer loop
vertex -57.465824 -1553.587402 459.218994
vertex -57.465824 -1553.587402 1130.294922
vertex -73.594742 -1553.587646 1130.294922
endloop
endfacet
facet normal 0.000015 -1.000000 0.000000
outer loop
vertex -57.465824 -1553.587402 459.218994
vertex -73.594742 -1553.587646 1130.294922
vertex -73.594742 -1553.587646 459.049438
endloop
endfacet
facet normal -0.000015 -1.000000 0.000000
outer loop
vertex -41.336884 -1553.587646 459.294189
vertex -41.336880 -1553.587646 1130.294922
vertex -57.465824 -1553.587402 1130.294922
endloop
endfacet
facet normal -0.000015 -1.000000 0.000000
outer loop
vertex -41.336884 -1553.587646 459.294189
vertex -57.465824 -1553.587402 1130.294922
vertex -57.465824 -1553.587402 459.218994
endloop
endfacet
facet normal 0.000015 -1.000000 0.000000
outer loop
vertex -25.207981 -1553.587402 459.526215
vertex -25.207981 -1553.587402 1130.294922
vertex -41.336880 -1553.587646 1130.294922
endloop
endfacet
facet normal 0.000015 -1.000000 -0.000000
outer loop
vertex -25.207981 -1553.587402 459.526215
vertex -41.336880 -1553.587646 1130.294922
vertex -41.336884 -1553.587646 459.294189
endloop
endfacet
facet normal 0.000000 -1.000000 0.000000
outer loop
vertex -9.079132 -1553.587402 460.930908
vertex -9.079132 -1553.587402 1130.294922
vertex -25.207981 -1553.587402 1130.294922
endloop
endfacet
facet normal 0.000000 -1.000000 0.000000
outer loop
vertex -9.079132 -1553.587402 460.930908
vertex -25.207981 -1553.587402 1130.294922
vertex -25.207981 -1553.587402 459.526215
endloop
endfacet
facet normal 0.000000 -1.000000 0.000000
outer loop
vertex 7.049778 -1553.587402 461.178467
vertex 7.049778 -1553.587402 1130.294922
vertex -9.079132 -1553.587402 1130.294922
endloop
endfacet
facet normal 0.000000 -1.000000 0.000000
outer loop
vertex 7.049778 -1553.587402 461.178467
vertex -9.079132 -1553.587402 1130.294922
vertex -9.079132 -1553.587402 460.930908
endloop
endfacet
facet normal -0.000015 -1.000000 0.000000
outer loop
vertex 23.178726 -1553.587646 462.200317
vertex 23.178726 -1553.587646 1130.294922
vertex 7.049778 -1553.587402 1130.294922
endloop
endfacet
facet normal -0.000015 -1.000000 0.000000
outer loop
vertex 23.178726 -1553.587646 462.200317
vertex 7.049778 -1553.587402 1130.294922
vertex 7.049778 -1553.587402 461.178467
endloop
endfacet
facet normal 0.000008 -1.000000 0.000000
outer loop
vertex 39.307606 -1553.587524 462.116547
vertex 39.307606 -1553.587524 1130.294922
vertex 23.178726 -1553.587646 1130.294922
endloop
endfacet
facet normal 0.000008 -1.000000 0.000000
outer loop
vertex 39.307606 -1553.587524 462.116547
vertex 23.178726 -1553.587646 1130.294922
vertex 23.178726 -1553.587646 462.200317
endloop
endfacet
facet normal 0.000000 -1.000000 0.000000
outer loop
vertex 55.436478 -1553.587524 461.907471
vertex 55.436478 -1553.587524 1130.294922
vertex 39.307606 -1553.587524 1130.294922
endloop
endfacet
facet normal 0.000000 -1.000000 0.000000
outer loop
vertex 55.436478 -1553.587524 461.907471
vertex 39.307606 -1553.587524 1130.294922
vertex 39.307606 -1553.587524 462.116547
endloop
endfacet
facet normal 0.000000 -1.000000 0.000000
outer loop
vertex 71.565437 -1553.587524 462.059021
vertex 71.565437 -1553.587524 1130.294922
vertex 55.436478 -1553.587524 1130.294922
endloop
endfacet
facet normal 0.000000 -1.000000 0.000000
outer loop
vertex 71.565437 -1553.587524 462.059021
vertex 55.436478 -1553.587524 1130.294922
vertex 55.436478 -1553.587524 461.907471
endloop
endfacet
facet normal -0.000008 -1.000000 0.000000
outer loop
vertex 87.694382 -1553.587646 466.121307
vertex 87.694382 -1553.587646 1130.294922
vertex 71.565437 -1553.587524 1130.294922
endloop
endfacet
facet normal -0.000008 -1.000000 0.000000
outer loop
vertex 87.694382 -1553.587646 466.121307
vertex 71.565437 -1553.587524 1130.294922
vertex 71.565437 -1553.587524 462.059021
endloop
endfacet
facet normal 0.000008 -1.000000 0.000000
outer loop
vertex 103.823273 -1553.587524 467.872559
vertex 103.823273 -1553.587524 1130.294922
vertex 87.694382 -1553.587646 1130.294922
endloop
endfacet
facet normal 0.000008 -1.000000 0.000000
outer loop
vertex 103.823273 -1553.587524 467.872559
vertex 87.694382 -1553.587646 1130.294922
vertex 87.694382 -1553.587646 466.121307
endloop
endfacet
facet normal 0.000008 -1.000000 0.000000
outer loop
vertex 119.952133 -1553.587402 469.428558
vertex 119.952133 -1553.587402 1130.294922
vertex 103.823273 -1553.587524 1130.294922
endloop
endfacet
facet normal 0.000008 -1.000000 0.000000
outer loop
vertex 119.952133 -1553.587402 469.428558
vertex 103.823273 -1553.587524 1130.294922
vertex 103.823273 -1553.587524 467.872559
endloop
endfacet
facet normal -0.000008 -1.000000 0.000000
outer loop
vertex 136.081024 -1553.587524 471.639771
vertex 136.081024 -1553.587524 1130.294922
vertex 119.952133 -1553.587402 1130.294922
endloop
endfacet
facet normal -0.000008 -1.000000 0.000000
outer loop
vertex 136.081024 -1553.587524 471.639771
vertex 119.952133 -1553.587402 1130.294922
vertex 119.952133 -1553.587402 469.428558
endloop
endfacet
facet normal 0.000000 -1.000000 0.000000
outer loop
vertex 152.209946 -1553.587524 471.786255
vertex 152.209946 -1553.587524 1130.294922
vertex 136.081024 -1553.587524 1130.294922
endloop
endfacet
facet normal 0.000000 -1.000000 0.000000
outer loop
vertex 152.209946 -1553.587524 471.786255
vertex 136.081024 -1553.587524 1130.294922
vertex 136.081024 -1553.587524 471.639771
endloop
endfacet
facet normal -0.000008 -1.000000 0.000000
outer loop
vertex 168.338928 -1553.587646 471.804382
vertex 168.338928 -1553.587646 1130.294922
vertex 152.209946 -1553.587524 1130.294922
endloop
endfacet
facet normal -0.000008 -1.000000 0.000000
outer loop
vertex 168.338928 -1553.587646 471.804382
vertex 152.209946 -1553.587524 1130.294922
vertex 152.209946 -1553.587524 471.786255
endloop
endfacet
facet normal 0.000000 -1.000000 0.000000
outer loop
vertex 184.467834 -1553.587646 472.665131
vertex 184.467834 -1553.587646 1130.294922
vertex 168.338928 -1553.587646 1130.294922
endloop
endfacet
facet normal 0.000000 -1.000000 0.000000
outer loop
vertex 184.467834 -1553.587646 472.665131
vertex 168.338928 -1553.587646 1130.294922
vertex 168.338928 -1553.587646 471.804382
endloop
endfacet
facet normal 0.000015 -1.000000 0.000000
outer loop
vertex 200.596664 -1553.587402 472.288269
vertex 200.596664 -1553.587402 1130.294922
vertex 184.467834 -1553.587646 1130.294922
endloop
endfacet
facet normal 0.000015 -1.000000 0.000000
outer loop
vertex 200.596664 -1553.587402 472.288269
vertex 184.467834 -1553.587646 1130.294922
vertex 184.467834 -1553.587646 472.665131
endloop
endfacet
facet normal 0.000000 -1.000000 0.000000
outer loop
vertex 216.725586 -1553.587402 473.322510
vertex 216.725586 -1553.587402 1130.294922
vertex 200.596664 -1553.587402 1130.294922
endloop
endfacet
facet normal 0.000000 -1.000000 0.000000
outer loop
vertex 216.725586 -1553.587402 473.322510
vertex 200.596664 -1553.587402 1130.294922
vertex 200.596664 -1553.587402 472.288269
endloop
endfacet
facet normal -0.000008 -1.000000 0.000000
outer loop
vertex 232.854538 -1553.587524 471.117371
vertex 232.854538 -1553.587524 1130.294922
vertex 216.725586 -1553.587402 1130.294922
endloop
endfacet
facet normal -0.000008 -1.000000 0.000000
outer loop
vertex 232.854538 -1553.587524 471.117371
vertex 216.725586 -1553.587402 1130.294922
vertex 216.725586 -1553.587402 473.322510
endloop
endfacet
facet normal 0.000000 -1.000000 0.000000
outer loop
vertex 248.983383 -1553.587524 470.091400
vertex 248.983383 -1553.587524 1130.294922
vertex 232.854538 -1553.587524 1130.294922
endloop
endfacet
facet normal 0.000000 -1.000000 0.000000
outer loop
vertex 248.983383 -1553.587524 470.091400
vertex 232.854538 -1553.587524 1130.294922
vertex 232.854538 -1553.587524 471.117371
endloop
endfacet
facet normal 0.000000 -1.000000 0.000000
outer loop
vertex 265.112366 -1553.587524 470.221558
vertex 265.112366 -1553.587524 1130.294922
vertex 248.983383 -1553.587524 1130.294922
endloop
endfacet
facet normal 0.000000 -1.000000 0.000000
outer loop
vertex 265.112366 -1553.587524 470.221558
vertex 248.983383 -1553.587524 1130.294922
vertex 248.983383 -1553.587524 470.091400
endloop
endfacet
facet normal -0.000008 -1.000000 0.000000
outer loop
vertex 281.241211 -1553.587646 468.740448
vertex 281.241211 -1553.587646 1130.294922
vertex 265.112366 -1553.587524 1130.294922
endloop
endfacet
facet normal -0.000008 -1.000000 0.000000
outer loop
vertex 281.241211 -1553.587646 468.740448
vertex 265.112366 -1553.587524 1130.294922
vertex 265.112366 -1553.587524 470.221558
endloop
endfacet
facet normal 0.000015 -1.000000 0.000000
outer loop
vertex 297.370087 -1553.587402 467.081665
vertex 297.370087 -1553.587402 1130.294922
vertex 281.241211 -1553.587646 1130.294922
endloop
endfacet
facet normal 0.000015 -1.000000 0.000000
outer loop
vertex 297.370087 -1553.587402 467.081665
vertex 281.241211 -1553.587646 1130.294922
vertex 281.241211 -1553.587646 468.740448
endloop
endfacet
facet normal 0.000000 -1.000000 0.000000
outer loop
vertex 313.499023 -1553.587402 469.824646
vertex 313.499023 -1553.587402 1130.294922
vertex 297.370087 -1553.587402 1130.294922
endloop
endfacet
facet normal 0.000000 -1.000000 0.000000
outer loop
vertex 313.499023 -1553.587402 469.824646
vertex 297.370087 -1553.587402 1130.294922
vertex 297.370087 -1553.587402 467.081665
endloop
endfacet
facet normal 0.000000 -1.000000 0.000000
outer loop
vertex 329.627869 -1553.587402 471.342957
vertex 329.627869 -1553.587402 1130.294922
vertex 313.499023 -1553.587402 1130.294922
endloop
endfacet
facet normal 0.000000 -1.000000 0.000000
outer loop
vertex 329.627869 -1553.587402 471.342957
vertex 313.499023 -1553.587402 1130.294922
vertex 313.499023 -1553.587402 469.824646
endloop
endfacet
facet normal -0.000008 -1.000000 0.000000
outer loop
vertex 345.756897 -1553.587524 472.900726
vertex 345.756897 -1553.587524 1130.294922
vertex 329.627869 -1553.587402 1130.294922
endloop
endfacet
facet normal -0.000008 -1.000000 0.000000
outer loop
vertex 345.756897 -1553.587524 472.900726
vertex 329.627869 -1553.587402 1130.294922
vertex 329.627869 -1553.587402 471.342957
endloop
endfacet
facet normal 0.000008 -1.000000 0.000000
outer loop
vertex 361.885773 -1553.587402 478.507782
vertex 361.885773 -1553.587402 1130.294922
vertex 345.756897 -1553.587524 1130.294922
endloop
endfacet
facet normal 0.000008 -1.000000 0.000000
outer loop
vertex 361.885773 -1553.587402 478.507782
vertex 345.756897 -1553.587524 1130.294922
vertex 345.756897 -1553.587524 472.900726
endloop
endfacet
facet normal -0.000015 -1.000000 0.000000
outer loop
vertex 378.014679 -1553.587646 478.757019
vertex 378.014679 -1553.587646 1130.294922
vertex 361.885773 -1553.587402 1130.294922
endloop
endfacet
facet normal -0.000015 -1.000000 0.000000
outer loop
vertex 378.014679 -1553.587646 478.757019
vertex 361.885773 -1553.587402 1130.294922
vertex 361.885773 -1553.587402 478.507782
endloop
endfacet
facet normal 0.000008 -1.000000 0.000000
outer loop
vertex 394.143616 -1553.587524 477.630585
vertex 394.143616 -1553.587524 1130.294922
vertex 378.014679 -1553.587646 1130.294922
endloop
endfacet
facet normal 0.000008 -1.000000 0.000000
outer loop
vertex 394.143616 -1553.587524 477.630585
vertex 378.014679 -1553.587646 1130.294922
vertex 378.014679 -1553.587646 478.757019
endloop
endfacet
facet normal 0.000008 -1.000000 0.000000
outer loop
vertex 410.272491 -1553.587402 475.046692
vertex 410.272491 -1553.587402 1130.294922
vertex 394.143616 -1553.587524 1130.294922
endloop
endfacet
facet normal 0.000008 -1.000000 0.000000
outer loop
vertex 410.272491 -1553.587402 475.046692
vertex 394.143616 -1553.587524 1130.294922
vertex 394.143616 -1553.587524 477.630585
endloop
endfacet
facet normal 0.000000 -1.000000 0.000000
outer loop
vertex 426.401398 -1553.587402 469.202362
vertex 426.401398 -1553.587402 1130.294922
vertex 410.272491 -1553.587402 1130.294922
endloop
endfacet
facet normal 0.000000 -1.000000 0.000000
outer loop
vertex 426.401398 -1553.587402 469.202362
vertex 410.272491 -1553.587402 1130.294922
vertex 410.272491 -1553.587402 475.046692
endloop
endfacet
facet normal 0.000000 -1.000000 0.000000
outer loop
vertex 442.530273 -1553.587402 463.580017
vertex 442.530273 -1553.587402 1130.294922
vertex 426.401398 -1553.587402 1130.294922
endloop
endfacet
facet normal 0.000000 -1.000000 0.000000
outer loop
vertex 442.530273 -1553.587402 463.580017
vertex 426.401398 -1553.587402 1130.294922
vertex 426.401398 -1553.587402 469.202362
endloop
endfacet
facet normal 0.000000 -1.000000 0.000000
outer loop
vertex 458.659149 -1553.587402 470.691254
vertex 458.659149 -1553.587402 1130.294922
vertex 442.530273 -1553.587402 1130.294922
endloop
endfacet
facet normal 0.000000 -1.000000 0.000000
outer loop
vertex 458.659149 -1553.587402 470.691254
vertex 442.530273 -1553.587402 1130.294922
vertex 442.530273 -1553.587402 463.580017
endloop
endfacet
facet normal -0.000015 -1.000000 0.000000
outer loop
vertex 474.788147 -1553.587646 478.992523
vertex 474.788147 -1553.587646 1130.294922
vertex 458.659149 -1553.587402 1130.294922
endloop
endfacet
facet normal -0.000015 -1.000000 0.000000
outer loop
vertex 474.788147 -1553.587646 478.992523
vertex 458.659149 -1553.587402 1130.294922
vertex 458.659149 -1553.587402 470.691254
endloop
endfacet
endsolid outlet
