solid patch0
 facet normal 0 0 1
  outer loop
   vertex 0 0 0
   vertex 6.02494 0 0
   vertex 6.02494 6.02494 0
  endloop
 endfacet
 facet normal 0 0 1
  outer loop
   vertex 0 0 0
   vertex 6.02494 6.02494 0
   vertex 0 6.02494 0
  endloop
 endfacet
 facet normal 0 0 1
  outer loop
   vertex 0 0 6.02494
   vertex 6.02494 0 6.02494
   vertex 6.02494 6.02494 6.02494
  endloop
 endfacet
 facet normal 0 0 1
  outer loop
   vertex 0 0 6.02494
   vertex 6.02494 6.02494 6.02494
   vertex 0 6.02494 6.02494
  endloop
 endfacet
 facet normal 0 -1 0
  outer loop
   vertex 0 0 0
   vertex 6.02494 0 0
   vertex 6.02494 0 6.02494
  endloop
 endfacet
 facet normal 0 -1 0
  outer loop
   vertex 0 0 0
   vertex 6.02494 0 6.02494
   vertex 0 0 6.02494
  endloop
 endfacet
 facet normal 0 1 0
  outer loop
   vertex 6.02494 6.02494 0
   vertex 0 6.02494 0
   vertex 0 6.02494 6.02494
  endloop
 endfacet
 facet normal 0 1 -0
  outer loop
   vertex 6.02494 6.02494 0
   vertex 0 6.02494 6.02494
   vertex 6.02494 6.02494 6.02494
  endloop
 endfacet
 facet normal 1 0 0
  outer loop
   vertex 0 0 0
   vertex 0 6.02494 0
   vertex 0 6.02494 6.02494
  endloop
 endfacet
 facet normal 1 0 0
  outer loop
   vertex 0 0 0
   vertex 0 6.02494 6.02494
   vertex 0 0 6.02494
  endloop
 endfacet
 facet normal 1 0 0
  outer loop
   vertex 6.02494 0 0
   vertex 6.02494 6.02494 0
   vertex 6.02494 6.02494 6.02494
  endloop
 endfacet
 facet normal 1 0 0
  outer loop
   vertex 6.02494 0 0
   vertex 6.02494 6.02494 6.02494
   vertex 6.02494 0 6.02494
  endloop
 endfacet
endsolid patch0
