solid patch0
 facet normal 0 0.5 -0.866025
  outer loop
   vertex 0.05 0.0816987 0.0316987
   vertex 0.05 0.168301 0.0816987
   vertex 0.15 0.168301 0.0816987
  endloop
 endfacet
 facet normal 0 0.5 -0.866025
  outer loop
   vertex 0.05 0.0816987 0.0316987
   vertex 0.15 0.168301 0.0816987
   vertex 0.15 0.0816987 0.0316987
  endloop
 endfacet
 facet normal 0 -0.5 0.866025
  outer loop
   vertex 0.05 0.0316987 0.118301
   vertex 0.15 0.0316987 0.118301
   vertex 0.15 0.118301 0.168301
  endloop
 endfacet
 facet normal 0 -0.5 0.866025
  outer loop
   vertex 0.05 0.0316987 0.118301
   vertex 0.15 0.118301 0.168301
   vertex 0.05 0.118301 0.168301
  endloop
 endfacet
 facet normal -1 0 0
  outer loop
   vertex 0.05 0.0816987 0.0316987
   vertex 0.05 0.0316987 0.118301
   vertex 0.05 0.118301 0.168301
  endloop
 endfacet
 facet normal -1 0 0
  outer loop
   vertex 0.05 0.0816987 0.0316987
   vertex 0.05 0.118301 0.168301
   vertex 0.05 0.168301 0.0816987
  endloop
 endfacet
 facet normal 1 0 0
  outer loop
   vertex 0.15 0.0816987 0.0316987
   vertex 0.15 0.168301 0.0816987
   vertex 0.15 0.118301 0.168301
  endloop
 endfacet
 facet normal 1 0 -0
  outer loop
   vertex 0.15 0.0816987 0.0316987
   vertex 0.15 0.118301 0.168301
   vertex 0.15 0.0316987 0.118301
  endloop
 endfacet
 facet normal 0 -0.866025 -0.5
  outer loop
   vertex 0.05 0.0816987 0.0316987
   vertex 0.15 0.0816987 0.0316987
   vertex 0.15 0.0316987 0.118301
  endloop
 endfacet
 facet normal 0 -0.866025 -0.5
  outer loop
   vertex 0.05 0.0816987 0.0316987
   vertex 0.15 0.0316987 0.118301
   vertex 0.05 0.0316987 0.118301
  endloop
 endfacet
 facet normal 0 0.866025 0.5
  outer loop
   vertex 0.05 0.168301 0.0816987
   vertex 0.05 0.118301 0.168301
   vertex 0.15 0.118301 0.168301
  endloop
 endfacet
 facet normal -0 0.866025 0.5
  outer loop
   vertex 0.05 0.168301 0.0816987
   vertex 0.15 0.118301 0.168301
   vertex 0.15 0.168301 0.0816987
  endloop
 endfacet
endsolid patch0
